<svg width="24" height="24" viewBox="0 0 24 24" fill="none" xmlns="http://www.w3.org/2000/svg">
<path fill-rule="evenodd" clip-rule="evenodd" d="M3.85999 0.362091H20.86C22.51 0.362091 23.86 1.71209 23.86 3.36209V20.3621C23.86 22.0121 22.51 23.3621 20.86 23.3621H3.85999C2.20999 23.3621 0.859985 22.0121 0.859985 20.3621V3.36209C0.859985 1.71209 2.20999 0.362091 3.85999 0.362091ZM21.86 3.36209C21.86 2.82009 21.402 2.36209 20.86 2.36209H3.85999C3.31799 2.36209 2.85999 2.82009 2.85999 3.36209V20.3621C2.85999 20.9041 3.31799 21.3621 3.85999 21.3621H20.86C21.402 21.3621 21.86 20.9041 21.86 20.3621V3.36209Z" fill="white"/>
</svg>
