<svg width="28" height="24" viewBox="0 0 28 24" fill="none" xmlns="http://www.w3.org/2000/svg">
<path d="M8.14499 7.8481L5.31599 10.6771L13.099 18.4601L27.031 4.5281L24.203 1.6991L13.099 12.8011L8.14499 7.8481Z" fill="white"/>
<path d="M21.86 20.3621C21.86 20.9041 21.402 21.3621 20.86 21.3621H3.85999C3.31799 21.3621 2.85999 20.9041 2.85999 20.3621V3.36209C2.85999 2.82009 3.31799 2.36209 3.85999 2.36209H20.768L22.353 0.777091C21.901 0.508633 21.3857 0.365391 20.86 0.362091H3.85999C2.20999 0.362091 0.859985 1.71209 0.859985 3.36209V20.3621C0.859985 22.0121 2.20999 23.3621 3.85999 23.3621H20.86C22.51 23.3621 23.86 22.0121 23.86 20.3621V10.5331L21.86 12.5331V20.3621Z" fill="white"/>
</svg>
